<svg xmlns="http://www.w3.org/2000/svg" width="1920" height="705.358" viewBox="0 0 1920 705.358">
  <g id="Layer_x0020_1" transform="translate(0 0.005)" opacity="0.29">
    <g id="_2373957559696" transform="translate(0 -0.005)">
      <path id="Path_2458" data-name="Path 2458" d="M1397.1,2320.67h154.592v6.626H1396.68v-6.626Zm153.757.833h-153.34v4.958h153.34Z" transform="translate(-1115.561 -1853.573)"/>
      <path id="Path_2459" data-name="Path 2459" d="M1424.5,2349.44h144.112v5.247H1424.08v-5.247Zm143.277.833h-142.86v3.579h142.86Z" transform="translate(-1137.446 -1876.552)"/>
      <path id="Path_2460" data-name="Path 2460" d="M1424.5,2349.44h144.112v16H1424.08v-16Zm143.277.833h-142.86v14.334h142.86Z" transform="translate(-1137.446 -1876.552)"/>
      <path id="Path_2461" data-name="Path 2461" d="M1424.5,2349.44h144.112v85.231H1424.08V2349.44Zm143.277.833h-142.86v83.562h142.86Z" transform="translate(-1137.446 -1876.552)"/>
      <path id="Path_2462" data-name="Path 2462" d="M1525.907,2509.76h39.581v41.1h-40v-41.1Zm38.748.833h-38.331v39.434h38.331Z" transform="translate(-1218.445 -2004.604)"/>
      <path id="Path_2463" data-name="Path 2463" d="M1551.937,2536.53h29.1v30.326H1551.52V2536.53Zm28.267.833h-27.851v28.658H1580.2Z" transform="translate(-1239.235 -2025.985)"/>
      <path id="Path_2464" data-name="Path 2464" d="M1551.937,2536.53h29.1v10.891H1551.52V2536.53Zm28.267.833h-27.851v9.225H1580.2Z" transform="translate(-1239.235 -2025.985)"/>
      <path id="Path_2465" data-name="Path 2465" d="M1738.3,2509.76h13.1v41.1H1737.88v-41.1Zm12.27.833h-11.853v39.434h11.853Z" transform="translate(-1388.086 -2004.604)"/>
      <path id="Path_2466" data-name="Path 2466" d="M1886.287,2509.76h39.581v41.1h-40v-41.1Zm38.748.833H1886.7v39.434h38.331Z" transform="translate(-1506.289 -2004.604)"/>
      <path id="Path_2467" data-name="Path 2467" d="M1912.317,2536.53h29.1v30.326H1911.9V2536.53Zm28.267.833h-27.851v28.658h27.851Z" transform="translate(-1527.08 -2025.985)"/>
      <path id="Path_2468" data-name="Path 2468" d="M1912.317,2536.53h29.1v10.891H1911.9V2536.53Zm28.267.833h-27.851v9.225h27.851Z" transform="translate(-1527.08 -2025.985)"/>
      <path id="Path_2469" data-name="Path 2469" d="M1444.1,2773.705h135.137v-4.13H1444.1Zm135.554.833H1443.26v-5.8h136.805v5.8Z" transform="translate(-1152.766 -2211.457)"/>
      <path id="Path_2470" data-name="Path 2470" d="M1424.915,2861.81h70.6v-48.542h38.343v48.542h33.917v-67.566h-142.86Zm71.016.833H1424.08V2793.41h144.529v69.233h-35.586V2814.1h-36.675v48.542Z" transform="translate(-1137.446 -2231.162)"/>
      <path id="Path_2471" data-name="Path 2471" d="M1759.263,2836.771h46.054V2828.5h-46.054Zm46.471.833h-47.3v-9.935h47.721v9.935Z" transform="translate(-1404.5 -2258.525)"/>
      <path id="Path_2472" data-name="Path 2472" d="M1810.917,2916.74h25.24v44.412H1810.5q.021-22.206,0-44.412Zm24.4.833h-23.988v42.743h23.988Z" transform="translate(-1446.089 -2329.668)"/>
      <path id="Path_2473" data-name="Path 2473" d="M1832.847,3009.91h5.382v4.145h-5.8v-4.145Zm4.547.833h-4.13v2.476h4.13Z" transform="translate(-1463.605 -2404.085)"/>
      <path id="Path_2474" data-name="Path 2474" d="M1263.193,2516.083h-39.71v6.336h39.71Zm-40.126-.833h40.96v8H1222.65v-8Z" transform="translate(-976.559 -2008.988)"/>
      <path id="Path_2475" data-name="Path 2475" d="M1290.966,2556.393H1256.9v-5.523h34.483v5.523Zm-33.231-.833h32.814v-3.854h-32.814Z" transform="translate(-1003.916 -2037.439)"/>
      <path id="Path_2476" data-name="Path 2476" d="M1290.557,2575h-32.814v10.2h32.814Zm-33.231-.833h34.066v11.865H1256.91V2574.17h.417Z" transform="translate(-1003.924 -2056.05)"/>
      <path id="Path_2477" data-name="Path 2477" d="M1290.966,2699.04H1256.9v-70.06h34.483v70.06Zm-33.231-.833h32.814v-68.394h-32.814Z" transform="translate(-1003.916 -2099.827)"/>
      <path id="Path_2478" data-name="Path 2478" d="M1336.94,2742.424h-22.48V2701.6h22.9v40.824h-.417Zm-21.647-.833h21.231v-39.158h-21.231Z" transform="translate(-1049.89 -2157.831)"/>
      <path id="Path_2479" data-name="Path 2479" d="M1290.557,2973.753h-32.814v31.436h32.814Zm-33.231-.833h34.066v33.1H1256.91v-33.1h.417Z" transform="translate(-1003.924 -2374.541)"/>
      <path id="Path_2480" data-name="Path 2480" d="M2138.417,2516.62H2315.9v8.281H2138v-8.281Zm176.65.833H2138.835v6.612h176.232Z" transform="translate(-1707.671 -2010.083)"/>
      <path id="Path_2481" data-name="Path 2481" d="M2138.833,2558.3H2309.55v-3.854H2138.833Zm171.134.833H2138v-5.523h172.385v5.523h-.417Z" transform="translate(-1707.671 -2039.627)"/>
      <path id="Path_2482" data-name="Path 2482" d="M2138.409,2576.91h171.967v11.038H2137.99V2576.91h.417Zm171.133.833H2138.826v9.372h170.716Z" transform="translate(-1707.663 -2058.238)"/>
      <path id="Path_2483" data-name="Path 2483" d="M2138.833,2698.759H2309.55v-70.324H2138.833Zm171.134.833H2138V2627.6h172.385v71.992h-.417Z" transform="translate(-1707.671 -2098.725)"/>
      <path id="Path_2484" data-name="Path 2484" d="M2138.833,2698.759h99.008v-70.324h-99.008Zm99.425.833H2138V2627.6q50.336.051,100.674,0v71.992Z" transform="translate(-1707.671 -2098.725)"/>
      <path id="Path_2485" data-name="Path 2485" d="M2755.325,2744.632H2710.78V2702.98h44.963v41.652h-.417Zm-43.711-.833h43.294v-39.986h-43.294Z" transform="translate(-2165.164 -2158.933)"/>
      <path id="Path_2486" data-name="Path 2486" d="M2261.351,2731.259H2192.81v-7.729h68.958v7.729Zm-67.708-.833h67.289v-6.061h-67.289Z" transform="translate(-1751.449 -2175.347)"/>
      <path id="Path_2487" data-name="Path 2487" d="M2261.351,2790.179H2192.81v-7.729h68.958v7.729Zm-67.708-.833h67.289v-6.061h-67.289Z" transform="translate(-1751.449 -2222.407)"/>
      <path id="Path_2488" data-name="Path 2488" d="M2261.351,2849.1H2192.81v-7.729h68.958v7.729Zm-67.708-.833h67.289v-6.061h-67.289Z" transform="translate(-1751.449 -2269.468)"/>
      <path id="Path_2489" data-name="Path 2489" d="M2981.975,2983.21v28.521h-.835V2983.21Z" transform="translate(-2381.106 -2382.759)"/>
      <path id="Path_2490" data-name="Path 2490" d="M2279.877,3075.81h10.714v11.131H2279.46V3075.81Zm9.881.833H2280.3v9.462h9.462Z" transform="translate(-1820.658 -2456.721)"/>
      <path id="Path_2491" data-name="Path 2491" d="M2340.907,3076.644h-9.462v9.462h9.462Zm-9.881-.833h10.714v11.131H2330.61V3075.81Z" transform="translate(-1861.513 -2456.721)"/>
      <path id="Path_2492" data-name="Path 2492" d="M2382.2,3075.81h10.714v11.131H2381.78V3075.81Zm9.881.833h-9.462v9.462h9.462Z" transform="translate(-1902.384 -2456.721)"/>
      <path id="Path_2493" data-name="Path 2493" d="M2443.227,3076.644h-9.462v9.462h9.462Zm-9.881-.833h10.714v11.131H2432.93V3075.81Z" transform="translate(-1943.239 -2456.721)"/>
      <path id="Path_2494" data-name="Path 2494" d="M1036.513,2934.09v40.5h-.833v-40.5Z" transform="translate(-827.222 -2343.526)"/>
      <path id="Path_2495" data-name="Path 2495" d="M901.783,3039.72v19.24h-.833v-19.24Z" transform="translate(-719.61 -2427.895)"/>
      <path id="Path_2496" data-name="Path 2496" d="M837.43,2864.42a16.967,16.967,0,1,1-12,4.969A16.926,16.926,0,0,1,837.43,2864.42Zm11.41,5.559a16.138,16.138,0,1,0,4.726,11.411A16.085,16.085,0,0,0,848.84,2869.979Z" transform="translate(-655.321 -2287.879)"/>
      <path id="Path_2497" data-name="Path 2497" d="M949.619,2797.914a24.018,24.018,0,1,1-15.394,42.439l-.35-.294.324-.322a16.14,16.14,0,0,0-6.354-26.822l-.435-.141.183-.421a24.014,24.014,0,0,1,22.028-14.443Zm16.39,7.623a23.183,23.183,0,0,0-37.469,6.739A16.961,16.961,0,0,1,935.107,2840a23.178,23.178,0,0,0,30.9-34.462Z" transform="translate(-740.744 -2234.756)"/>
      <path id="Path_2498" data-name="Path 2498" d="M455.576,3134.073H253.12v-.833H455.576Z" transform="translate(-202.173 -2502.592)"/>
      <path id="Path_2499" data-name="Path 2499" d="M2598.74,3126.92H3865.012v.833H2598.74Z" transform="translate(-2075.675 -2497.544)"/>
      <path id="Path_2500" data-name="Path 2500" d="M0,3214.4H10.742v.833H0Z" transform="translate(0 -2567.416)"/>
      <path id="Path_2501" data-name="Path 2501" d="M111.2,3214.4h17.457v.833H111.2Z" transform="translate(-88.818 -2567.416)"/>
      <path id="Path_2502" data-name="Path 2502" d="M391.42,3214.4h25.067v.833H391.42Z" transform="translate(-312.636 -2567.416)"/>
      <path id="Path_2503" data-name="Path 2503" d="M644.95,3214.4h598.93v.833H644.95Z" transform="translate(-515.137 -2567.416)"/>
      <path id="Path_2504" data-name="Path 2504" d="M3738.12,3214.4h10.744v.833H3738.12Z" transform="translate(-2985.725 -2567.416)"/>
      <path id="Path_2505" data-name="Path 2505" d="M3849.32,3214.4h17.458v.833H3849.32Z" transform="translate(-3074.542 -2567.416)"/>
      <path id="Path_2506" data-name="Path 2506" d="M1091.67,3313.06h213.289v.833H1091.67Z" transform="translate(-871.943 -2646.218)"/>
      <path id="Path_2507" data-name="Path 2507" d="M3126.99,3313.06h300.077v.833H3126.99Z" transform="translate(-2497.6 -2646.218)"/>
      <path id="Path_2508" data-name="Path 2508" d="M930.89,3313.06h22.064v.833H930.89Z" transform="translate(-743.524 -2646.218)"/>
      <path id="Path_2509" data-name="Path 2509" d="M3295.3,2766.872a23.9,23.9,0,1,1-29.366,0l.31-.242.258.294a18.771,18.771,0,0,0,28.231,0l.258-.294Zm6.045,8.735a23.173,23.173,0,0,0-6.252-7.84,19.608,19.608,0,0,1-28.956,0,23.049,23.049,0,1,0,35.2,7.84Z" transform="translate(-2601.227 -2209.772)"/>
      <path id="Path_2510" data-name="Path 2510" d="M3309.819,2629.456a19.628,19.628,0,1,1-24.536,0l.3-.246.264.29a15.821,15.821,0,0,0,23.4,0l.264-.29.306.246Zm4.68,7.19a18.861,18.861,0,0,0-4.9-6.3,16.65,16.65,0,0,1-24.093,0,18.781,18.781,0,1,0,28.994,6.3Z" transform="translate(-2618.16 -2100.011)"/>
      <path id="Path_2511" data-name="Path 2511" d="M3309.275,2494.85a16.664,16.664,0,1,1-11.785,4.881A16.618,16.618,0,0,1,3309.275,2494.85Zm11.2,5.471a15.832,15.832,0,1,0,4.637,11.195A15.785,15.785,0,0,0,3320.471,2500.321Z" transform="translate(-2629.885 -1992.694)"/>
      <path id="Path_2512" data-name="Path 2512" d="M3383.144,2715.47v93.887h-.833V2715.47Z" transform="translate(-2701.531 -2168.909)"/>
      <path id="Path_2513" data-name="Path 2513" d="M3338.61,2864.729l-11.161-11.489.6-.58,11.161,11.489Z" transform="translate(-2657.712 -2278.486)"/>
      <path id="Path_2514" data-name="Path 2514" d="M3382.9,2866.753l10.5-10.833.6.58-10.5,10.833Z" transform="translate(-2702.002 -2281.09)"/>
      <path id="Path_2515" data-name="Path 2515" d="M1609.273,1736.168a.552.552,0,0,1,0-1.1,7.427,7.427,0,0,0,5.251-12.688l-.026-.026a7.408,7.408,0,0,0-5.227-2.157.552.552,0,0,1,0-1.1,8.51,8.51,0,0,1,6,2.48l.032.03a8.54,8.54,0,0,1-6.032,14.573Z" transform="translate(-1284.923 -1373.077)" fill="#111"/>
      <path id="Path_2516" data-name="Path 2516" d="M1581.718,1719.08a.551.551,0,1,1,0,1.1h-6.946a.551.551,0,1,1,0-1.1Z" transform="translate(-1257.367 -1373.069)" fill="#111"/>
      <path id="Path_2517" data-name="Path 2517" d="M1191.558,1543.107a.551.551,0,1,1-1-.453,18.321,18.321,0,0,0,1.216-3.685,18.086,18.086,0,0,0,.408-3.834,18.328,18.328,0,0,0-18.33-18.33c-.26,0-.5.008-.731.022l-.739.052a.553.553,0,0,1-.566-.375,28.5,28.5,0,0,0-52.948.662.549.549,0,0,1-.662.332,18.9,18.9,0,0,0-2.482-.521,17.781,17.781,0,0,0-2.476-.173,18.317,18.317,0,0,0-17.922,22.165,18.492,18.492,0,0,0,1.216,3.685.551.551,0,1,1-1,.453,19.567,19.567,0,0,1-1.29-3.9,19.429,19.429,0,0,1,19-23.5,18.677,18.677,0,0,1,2.627.187,19.919,19.919,0,0,1,2.15.425,29.6,29.6,0,0,1,54.667-.562l.37-.022c.274-.016.539-.026.791-.026a19.4,19.4,0,0,1,17.708,27.406Z" transform="translate(-873.652 -1196.319)" fill="#111"/>
      <path id="Path_2518" data-name="Path 2518" d="M1074.283,1719.08a.551.551,0,1,1,0,1.1h-7.161a.551.551,0,1,1,0-1.1Z" transform="translate(-851.895 -1373.069)" fill="#111"/>
      <path id="Path_2519" data-name="Path 2519" d="M1035.428,1719.072a.552.552,0,0,1,0,1.1,7.427,7.427,0,0,0-5.251,12.688l.026.026a7.411,7.411,0,0,0,5.227,2.158.552.552,0,1,1,0,1.1,8.518,8.518,0,0,1-6-2.478l-.032-.03a8.54,8.54,0,0,1,6.032-14.573Z" transform="translate(-820.201 -1373.061)" fill="#111"/>
      <path id="Path_2520" data-name="Path 2520" d="M1067.122,1799.563a.552.552,0,0,1,0-1.1h56.432a.552.552,0,0,1,0,1.1Z" transform="translate(-851.895 -1436.471)" fill="#111"/>
      <path id="Path_2521" data-name="Path 2521" d="M1389.981,1799.563a.552.552,0,0,1,0-1.1h17.431a.552.552,0,0,1,0,1.1Z" transform="translate(-1109.771 -1436.471)" fill="#111"/>
      <path id="Path_2522" data-name="Path 2522" d="M687.052,2091.148a.551.551,0,1,1,0-1.1,7.436,7.436,0,0,0,0-14.873.552.552,0,1,1,0-1.1,8.512,8.512,0,0,1,6.028,2.508l0,0a8.5,8.5,0,0,1,0,12.058l0,0a8.513,8.513,0,0,1-6.03,2.508Z" transform="translate(-548.324 -1656.607)" fill="#111"/>
      <path id="Path_2523" data-name="Path 2523" d="M659.488,2074.06a.552.552,0,1,1,0,1.1h-6.946a.552.552,0,1,1,0-1.1Z" transform="translate(-520.76 -1656.6)" fill="#111"/>
      <path id="Path_2524" data-name="Path 2524" d="M269.328,1898.1a.551.551,0,1,1-1-.453,18.35,18.35,0,0,0,1.216-3.685,18.063,18.063,0,0,0,.409-3.834,18.327,18.327,0,0,0-18.33-18.33c-.26,0-.5.008-.731.022l-.739.052a.553.553,0,0,1-.566-.375,28.5,28.5,0,0,0-52.948.662.549.549,0,0,1-.662.332,18.931,18.931,0,0,0-2.482-.521,17.778,17.778,0,0,0-2.476-.173,18.317,18.317,0,0,0-17.922,22.165,18.61,18.61,0,0,0,1.216,3.685.551.551,0,1,1-1,.453,19.564,19.564,0,0,1-1.29-3.9,19.429,19.429,0,0,1,19-23.5,18.676,18.676,0,0,1,2.627.187,19.817,19.817,0,0,1,2.15.425,29.6,29.6,0,0,1,54.665-.562l.37-.022c.274-.014.539-.026.789-.026a19.415,19.415,0,0,1,19,23.5,19.591,19.591,0,0,1-1.29,3.907Z" transform="translate(-137.045 -1479.858)" fill="#111"/>
      <path id="Path_2525" data-name="Path 2525" d="M152.053,2074.06a.552.552,0,0,1,0,1.1h-7.161a.552.552,0,1,1,0-1.1Z" transform="translate(-115.288 -1656.6)" fill="#111"/>
      <path id="Path_2526" data-name="Path 2526" d="M113.182,2074.044a.551.551,0,1,1,0,1.1,7.436,7.436,0,0,0,0,14.873.552.552,0,1,1,0,1.1,8.513,8.513,0,0,1-6.028-2.508l0,0a8.5,8.5,0,0,1,0-12.058l0,0a8.513,8.513,0,0,1,6.03-2.508Z" transform="translate(-83.578 -1656.584)" fill="#111"/>
      <path id="Path_2527" data-name="Path 2527" d="M144.892,2154.543a.552.552,0,0,1,0-1.1h56.432a.552.552,0,0,1,0,1.1Z" transform="translate(-115.288 -1720.002)" fill="#111"/>
      <path id="Path_2528" data-name="Path 2528" d="M467.752,2154.543a.552.552,0,0,1,0-1.1h17.431a.552.552,0,0,1,0,1.1Z" transform="translate(-373.164 -1720.002)" fill="#111"/>
      <path id="Path_2529" data-name="Path 2529" d="M870.072,1943.823a.552.552,0,0,1,0-1.1H961.6a.552.552,0,0,1,0,1.1Z" transform="translate(-694.506 -1551.695)" fill="#111"/>
      <path id="Path_2530" data-name="Path 2530" d="M1078.882,2004.2a.552.552,0,1,1,0-1.1h93.927a.552.552,0,0,1,0,1.1Z" transform="translate(-861.287 -1599.922)" fill="#111"/>
      <path id="Path_2531" data-name="Path 2531" d="M483.9,1600.243a.552.552,0,0,1,0-1.1h93.928a.552.552,0,0,1,0,1.1Z" transform="translate(-386.063 -1277.27)" fill="#111"/>
      <path id="Path_2532" data-name="Path 2532" d="M278.832,1671.2a.552.552,0,0,1,0-1.1h93.928a.552.552,0,0,1,0,1.1Z" transform="translate(-222.269 -1333.947)" fill="#111"/>
      <path id="Path_2533" data-name="Path 2533" d="M485.84,1693.5a.551.551,0,1,1,1.1,0,5.757,5.757,0,1,1-9.826-4.07l.032-.03a5.734,5.734,0,0,1,4.038-1.656.552.552,0,0,1,0,1.1,4.635,4.635,0,0,0-3.265,1.337l-.024.026a4.654,4.654,0,1,0,7.944,3.291Z" transform="translate(-379.737 -1348.037)" fill="#111"/>
      <path id="Path_2534" data-name="Path 2534" d="M1259.478,2126.438a.551.551,0,0,1-.779.779l-.02-.02a5.756,5.756,0,0,1-.125-8.109l.028-.029a5.756,5.756,0,0,1,8.109-.125l.028.028a5.756,5.756,0,0,1,.125,8.109l-.008.008a.55.55,0,1,1-.779-.777,4.65,4.65,0,0,0-.1-6.55l-.03-.028a4.65,4.65,0,0,0-6.551.106l-.028.03a4.648,4.648,0,0,0,.107,6.55l.03.028Z" transform="translate(-1003.952 -1691.156)" fill="#111"/>
      <path id="Path_2535" data-name="Path 2535" d="M3124.542,2296.364a.552.552,0,0,1,0-1.1,6.484,6.484,0,0,0,0-12.968.552.552,0,0,1,0-1.1,7.568,7.568,0,0,1,5.356,2.229l0,0a7.55,7.55,0,0,1,0,10.712l0,0a7.569,7.569,0,0,1-5.356,2.228Z" transform="translate(-2495.205 -1822.039)" fill="#111"/>
      <path id="Path_2536" data-name="Path 2536" d="M3100.26,2281.19a.552.552,0,1,1,0,1.1h-6.119a.552.552,0,1,1,0-1.1Z" transform="translate(-2470.923 -1822.039)" fill="#111"/>
      <path id="Path_2537" data-name="Path 2537" d="M2756.672,2126.3a.551.551,0,0,1-1-.453,16.26,16.26,0,0,0,1.067-3.235,16.077,16.077,0,0,0-15.722-19.443c-.229,0-.441.008-.64.018l-.65.046a.552.552,0,0,1-.566-.374,25.152,25.152,0,0,0-9.232-11.254,25.037,25.037,0,0,0-37.278,11.841.549.549,0,0,1-.663.332,16.824,16.824,0,0,0-2.178-.457,15.638,15.638,0,0,0-2.171-.151,16.069,16.069,0,0,0-15.722,19.443,16.317,16.317,0,0,0,1.066,3.232.551.551,0,1,1-1,.453,17.285,17.285,0,0,1-1.141-3.452,17.136,17.136,0,0,1,19.12-20.613,17.251,17.251,0,0,1,1.843.362,26.138,26.138,0,0,1,48.23-.485l.28-.016c.244-.014.479-.022.7-.022a17.153,17.153,0,0,1,15.657,24.233Z" transform="translate(-2132.951 -1666.368)" fill="#111"/>
      <path id="Path_2538" data-name="Path 2538" d="M2653.329,2281.19a.552.552,0,0,1,0,1.1h-6.308a.552.552,0,0,1,0-1.1Z" transform="translate(-2113.798 -1822.039)" fill="#111"/>
      <path id="Path_2539" data-name="Path 2539" d="M2619.09,2281.173a.552.552,0,0,1,0,1.1,6.484,6.484,0,0,0,0,12.968.552.552,0,0,1,0,1.1,7.565,7.565,0,0,1-5.356-2.228l0,0a7.553,7.553,0,0,1,0-10.714l0,0a7.569,7.569,0,0,1,5.358-2.228Z" transform="translate(-2085.866 -1822.023)" fill="#111"/>
      <path id="Path_2540" data-name="Path 2540" d="M2647.021,2352.2a.552.552,0,0,1,0-1.1h49.7a.552.552,0,1,1,0,1.1Z" transform="translate(-2113.798 -1877.878)" fill="#111"/>
      <path id="Path_2541" data-name="Path 2541" d="M2931.391,2352.2a.552.552,0,0,1,0-1.1h15.352a.552.552,0,0,1,0,1.1Z" transform="translate(-2340.931 -1877.878)" fill="#111"/>
      <path id="Path_2542" data-name="Path 2542" d="M8410.927,2.73l-4.446,84.824h9.918Z" transform="translate(-6714.454 -2.18)" fill="#fff"/>
      <path id="Path_2543" data-name="Path 2543" d="M8408.793,9.977l-3.922,74.839h8.752l-4.828-74.839Zm-5.053,75.362,4.445-84.8a.55.55,0,0,1,1.1-.024l5.473,84.856a.553.553,0,0,1-.553.551l-9.945,0a.551.551,0,0,1-.523-.578Z" transform="translate(-6712.261 0.005)"/>
      <path id="Path_2544" data-name="Path 2544" d="M8395.074,437.871H8370.79V419.06h24.284Z" transform="translate(-6685.947 -334.712)" fill="#fff"/>
      <path id="Path_2545" data-name="Path 2545" d="M8392.9,436.234H8368.61a.552.552,0,0,1-.551-.552V416.872a.552.552,0,0,1,.551-.551H8392.9a.552.552,0,0,1,.551.551v18.811A.552.552,0,0,1,8392.9,436.234Zm-23.733-1.1h23.182V417.423h-23.182Z" transform="translate(-6683.766 -332.524)"/>
      <path id="Path_2546" data-name="Path 2546" d="M8353.45,509.614h-52.33A24.284,24.284,0,0,1,8325.4,485.33h3.762a24.284,24.284,0,0,1,24.285,24.284Z" transform="translate(-6630.3 -387.643)" fill="#fff"/>
      <path id="Path_2547" data-name="Path 2547" d="M8351.271,507.977h-52.329a.553.553,0,0,1-.553-.552,24.836,24.836,0,0,1,24.836-24.836h3.762a24.836,24.836,0,0,1,24.836,24.836A.552.552,0,0,1,8351.271,507.977Zm-51.772-1.1h51.214a23.73,23.73,0,0,0-23.727-23.179h-3.763a23.73,23.73,0,0,0-23.725,23.179Z" transform="translate(-6628.12 -385.455)"/>
      <path id="Path_2548" data-name="Path 2548" d="M8393.754,1334.707H8368.58l4.082-451.4h17.01Z" transform="translate(-6684.183 -705.52)" fill="#fff"/>
      <path id="Path_2549" data-name="Path 2549" d="M8391.574,1333.072H8366.4a.552.552,0,0,1-.552-.551l4.085-451.4a.548.548,0,0,1,.549-.546l17.01,0a.552.552,0,0,1,.551.552l4.081,451.395a.55.55,0,0,1-.547.554l0,0Zm-24.618-1.1h24.062l-4.071-450.3h-15.92l-4.073,450.3Z" transform="translate(-6682.002 -703.331)"/>
      <path id="Path_2550" data-name="Path 2550" d="M8201.7,599.18l16.416,61.564h59.513l16.417-61.564H8201.7Zm73.834,52.245h-55.322v-5.131h55.322Zm3.72-12.954h-62.762v-5.131h62.762Zm3.464-12.954h-69.688v-5.13h69.688Zm-72.639-13.339h0v-5.131h75.587v5.131Z" transform="translate(-6550.891 -478.578)" fill="#fff"/>
      <path id="Path_2551" data-name="Path 2551" d="M8200.248,597.553l16.122,60.461h58.669l16.122-60.461h-90.914Zm15.17,61.154-16.406-61.524a.535.535,0,0,1-.031-.181.553.553,0,0,1,.552-.552h92.348a.709.709,0,0,1,.142.02.552.552,0,0,1,.393.672L8276,658.668a.55.55,0,0,1-.541.449h-59.513a.556.556,0,0,1-.532-.411Zm57.948-8.909h-55.322a.552.552,0,0,1-.552-.552v-5.13a.552.552,0,0,1,.552-.552h55.322a.553.553,0,0,1,.553.552v5.13A.553.553,0,0,1,8273.366,649.8Zm-54.771-1.1h54.221v-4.028h-54.221Zm58.491-11.851h-62.762a.553.553,0,0,1-.552-.552v-5.13a.553.553,0,0,1,.552-.552h62.762a.553.553,0,0,1,.552.552v5.13A.553.553,0,0,1,8277.086,636.844Zm-62.211-1.1h61.659v-4.027h-61.659Zm65.675-11.851h-69.687a.553.553,0,0,1-.553-.552v-5.131a.553.553,0,0,1,.553-.551h69.688a.553.553,0,0,1,.553.551v5.131A.553.553,0,0,1,8280.55,623.89Zm-69.136-1.1H8280v-4.028h-68.584ZM8207.36,610v-5.13a.552.552,0,0,1,.551-.552h75.59a.552.552,0,0,1,.551.552V610a.552.552,0,0,1-.551.552h-75.59A.552.552,0,0,1,8207.36,610Zm1.1-4.579v4.027h74.484v-4.027Z" transform="translate(-6548.719 -476.398)"/>
      <path id="Path_2552" data-name="Path 2552" d="M8067.973,1625.712h-25.662V1611.17h25.662Z" transform="translate(-6423.583 -1286.878)" fill="#fff"/>
      <path id="Path_2553" data-name="Path 2553" d="M8065.784,1624.083h-25.663a.552.552,0,0,1-.551-.552v-14.54a.552.552,0,0,1,.551-.551h25.663a.552.552,0,0,1,.551.551v14.54A.551.551,0,0,1,8065.784,1624.083Zm-25.111-1.1h24.56v-13.437h-24.56Z" transform="translate(-6421.394 -1284.698)"/>
      <path id="Path_2554" data-name="Path 2554" d="M8099.718,1385.435h-4.277V1328.55h4.277Z" transform="translate(-6466.02 -1061.143)" fill="#fff"/>
      <path id="Path_2555" data-name="Path 2555" d="M8097.528,1383.8h-4.277a.553.553,0,0,1-.552-.552v-56.885a.553.553,0,0,1,.552-.552h4.277a.553.553,0,0,1,.552.552v56.885A.553.553,0,0,1,8097.528,1383.8Zm-3.726-1.1h3.172v-55.782H8093.8Z" transform="translate(-6463.83 -1058.955)"/>
      <path id="Path_2556" data-name="Path 2556" d="M8044.487,1704.386H8003v-23.1h41.487Z" transform="translate(-6392.185 -1342.885)" fill="#fff"/>
      <path id="Path_2557" data-name="Path 2557" d="M8042.3,1702.75h-41.486a.553.553,0,0,1-.552-.552v-23.1a.553.553,0,0,1,.552-.552H8042.3a.553.553,0,0,1,.552.552v23.1A.553.553,0,0,1,8042.3,1702.75Zm-40.936-1.1h40.385v-21.991h-40.385Z" transform="translate(-6389.996 -1340.697)"/>
      <path id="Path_2558" data-name="Path 2558" d="M8024.807,1841.953H7970.06V1784.64h54.747Z" transform="translate(-6365.875 -1425.433)" fill="#fff"/>
      <path id="Path_2559" data-name="Path 2559" d="M8022.618,1840.324h-54.747a.552.552,0,0,1-.551-.552v-57.312a.552.552,0,0,1,.551-.552h54.747a.553.553,0,0,1,.552.552v57.312A.553.553,0,0,1,8022.618,1840.324Zm-54.2-1.1h53.645v-56.208h-53.645Z" transform="translate(-6363.686 -1423.252)"/>
      <path id="Path_2560" data-name="Path 2560" d="M8005.767,2123.39H7938.19v-71h67.576Z" transform="translate(-6340.42 -1639.291)" fill="#fff"/>
      <path id="Path_2561" data-name="Path 2561" d="M8003.588,2121.753h-67.576a.553.553,0,0,1-.552-.552v-71a.553.553,0,0,1,.552-.551h67.576a.552.552,0,0,1,.552.551v71A.552.552,0,0,1,8003.588,2121.753Zm-67.024-1.1h66.473v-69.9h-66.473Z" transform="translate(-6338.239 -1637.103)"/>
      <path id="Path_2562" data-name="Path 2562" d="M7987.919,2106.18H7973.78v-14.14h14.139Z" transform="translate(-6368.846 -1670.961)" fill="#fff"/>
      <path id="Path_2563" data-name="Path 2563" d="M7985.739,2104.551H7971.6a.553.553,0,0,1-.552-.552v-14.138a.552.552,0,0,1,.552-.551h14.138a.553.553,0,0,1,.552.551V2104A.553.553,0,0,1,7985.739,2104.551Zm-13.586-1.1h13.034v-13.035h-13.034Z" transform="translate(-6366.665 -1668.78)"/>
      <path id="Path_2564" data-name="Path 2564" d="M8082.949,2106.18h-14.14v-14.14h14.14Z" transform="translate(-6444.748 -1670.961)" fill="#fff"/>
      <path id="Path_2565" data-name="Path 2565" d="M8080.77,2104.551h-14.139a.552.552,0,0,1-.551-.552v-14.138a.552.552,0,0,1,.551-.551h14.139a.552.552,0,0,1,.551.551V2104A.552.552,0,0,1,8080.77,2104.551Zm-13.587-1.1h13.034v-13.035h-13.034Z" transform="translate(-6442.569 -1668.78)"/>
      <path id="Path_2566" data-name="Path 2566" d="M8177.988,2106.18H8163.85v-14.14h14.139Z" transform="translate(-6520.659 -1670.961)" fill="#fff"/>
      <path id="Path_2567" data-name="Path 2567" d="M8175.8,2104.551h-14.138a.553.553,0,0,1-.552-.552v-14.138a.552.552,0,0,1,.552-.551H8175.8a.553.553,0,0,1,.552.551V2104A.553.553,0,0,1,8175.8,2104.551Zm-13.586-1.1h13.035v-13.035h-13.035Z" transform="translate(-6518.471 -1668.78)"/>
      <path id="Path_2568" data-name="Path 2568" d="M7987.919,2199.808H7973.78V2185.67h14.139Z" transform="translate(-6368.846 -1745.745)" fill="#fff"/>
      <path id="Path_2569" data-name="Path 2569" d="M7985.739,2198.181H7971.6a.553.553,0,0,1-.552-.552v-14.138a.552.552,0,0,1,.552-.551h14.138a.553.553,0,0,1,.552.551v14.138A.553.553,0,0,1,7985.739,2198.181Zm-13.586-1.1h13.034v-13.035h-13.034Z" transform="translate(-6366.665 -1743.565)"/>
      <path id="Path_2570" data-name="Path 2570" d="M8082.949,2199.808h-14.14V2185.67h14.14Z" transform="translate(-6444.748 -1745.745)" fill="#fff"/>
      <path id="Path_2571" data-name="Path 2571" d="M8080.77,2198.181h-14.139a.552.552,0,0,1-.551-.552v-14.138a.552.552,0,0,1,.551-.551h14.139a.552.552,0,0,1,.551.551v14.138A.552.552,0,0,1,8080.77,2198.181Zm-13.587-1.1h13.034v-13.035h-13.034Z" transform="translate(-6442.569 -1743.565)"/>
      <path id="Path_2572" data-name="Path 2572" d="M8177.988,2199.808H8163.85V2185.67h14.139Z" transform="translate(-6520.659 -1745.745)" fill="#fff"/>
      <path id="Path_2573" data-name="Path 2573" d="M8175.8,2198.181h-14.138a.553.553,0,0,1-.552-.552v-14.138a.552.552,0,0,1,.552-.551H8175.8a.553.553,0,0,1,.552.551v14.138A.553.553,0,0,1,8175.8,2198.181Zm-13.586-1.1h13.035v-13.035h-13.035Z" transform="translate(-6518.471 -1743.565)"/>
      <path id="Path_2574" data-name="Path 2574" d="M7987.919,2293.438H7973.78V2279.3h14.139Z" transform="translate(-6368.846 -1820.529)" fill="#fff"/>
      <path id="Path_2575" data-name="Path 2575" d="M7985.739,2291.8H7971.6a.553.553,0,0,1-.552-.552v-14.138a.552.552,0,0,1,.552-.552h14.138a.553.553,0,0,1,.552.552v14.138A.553.553,0,0,1,7985.739,2291.8Zm-13.586-1.1h13.034v-13.034h-13.034Z" transform="translate(-6366.665 -1818.341)"/>
      <path id="Path_2576" data-name="Path 2576" d="M8082.949,2293.438h-14.14V2279.3h14.14Z" transform="translate(-6444.748 -1820.529)" fill="#fff"/>
      <path id="Path_2577" data-name="Path 2577" d="M8080.77,2291.8h-14.139a.552.552,0,0,1-.551-.552v-14.138a.552.552,0,0,1,.551-.552h14.139a.552.552,0,0,1,.551.552v14.138A.552.552,0,0,1,8080.77,2291.8Zm-13.587-1.1h13.034v-13.034h-13.034Z" transform="translate(-6442.569 -1818.341)"/>
      <path id="Path_2578" data-name="Path 2578" d="M8177.988,2293.438H8163.85V2279.3h14.139Z" transform="translate(-6520.659 -1820.529)" fill="#fff"/>
      <path id="Path_2579" data-name="Path 2579" d="M8175.8,2291.8h-14.138a.553.553,0,0,1-.552-.552v-14.138a.552.552,0,0,1,.552-.552H8175.8a.553.553,0,0,1,.552.552v14.138A.553.553,0,0,1,8175.8,2291.8Zm-13.586-1.1h13.035v-13.034h-13.035Z" transform="translate(-6518.471 -1818.341)"/>
      <path id="Path_2580" data-name="Path 2580" d="M8291.633,2576.145a.551.551,0,0,1-.677-.869l28.411-22.064a.551.551,0,0,1,.69.012l29.949,22.69a.55.55,0,0,1-.663.877l-29.636-22.45-28.078,21.8Z" transform="translate(-6622.012 -2039.217)"/>
      <path id="Path_2581" data-name="Path 2581" d="M8355.022,2532.917H8299.85V2522.01h55.173Z" transform="translate(-6629.285 -2014.388)" fill="#fff"/>
      <path id="Path_2582" data-name="Path 2582" d="M8352.835,2531.28h-55.174a.552.552,0,0,1-.552-.552v-10.907a.552.552,0,0,1,.552-.551h55.174a.552.552,0,0,1,.552.551v10.907A.552.552,0,0,1,8352.835,2531.28Zm-54.622-1.1h54.069v-9.8h-54.069Z" transform="translate(-6627.097 -2012.199)"/>
      <path id="Path_2583" data-name="Path 2583" d="M7984.181,2523.4h-82.12V2371.14h82.12Z" transform="translate(-6311.562 -1893.885)" fill="#fff"/>
      <path id="Path_2584" data-name="Path 2584" d="M7981.992,2521.767h-82.121a.553.553,0,0,1-.552-.552V2368.951a.553.553,0,0,1,.552-.551h82.121a.553.553,0,0,1,.552.551v152.264A.553.553,0,0,1,7981.992,2521.767Zm-81.569-1.1h81.018V2369.5h-81.019v151.161Z" transform="translate(-6309.373 -1891.696)"/>
      <path id="Path_2585" data-name="Path 2585" d="M8033.607,1711.51h-8.828v-8.83h8.828Z" transform="translate(-6409.58 -1359.97)" fill="#fff"/>
      <path id="Path_2586" data-name="Path 2586" d="M8031.421,1709.873h-8.83a.553.553,0,0,1-.552-.552v-8.83a.553.553,0,0,1,.552-.552h8.83a.553.553,0,0,1,.553.552v8.83A.553.553,0,0,1,8031.421,1709.873Zm-8.278-1.1h7.728v-7.727h-7.728Z" transform="translate(-6407.392 -1357.781)"/>
      <path id="Path_2587" data-name="Path 2587" d="M8092.958,1711.51h-8.828v-8.83h8.828Z" transform="translate(-6456.985 -1359.97)" fill="#fff"/>
      <path id="Path_2588" data-name="Path 2588" d="M8090.771,1709.873h-8.829a.553.553,0,0,1-.553-.552v-8.83a.553.553,0,0,1,.553-.552h8.829a.553.553,0,0,1,.552.552v8.83A.552.552,0,0,1,8090.771,1709.873Zm-8.278-1.1h7.725v-7.727h-7.725Z" transform="translate(-6454.796 -1357.781)"/>
      <path id="Path_2589" data-name="Path 2589" d="M8152.3,1711.51h-8.83v-8.83h8.83Z" transform="translate(-6504.381 -1359.97)" fill="#fff"/>
      <path id="Path_2590" data-name="Path 2590" d="M8150.111,1709.873h-8.829a.552.552,0,0,1-.552-.552v-8.83a.552.552,0,0,1,.552-.552h8.829a.553.553,0,0,1,.552.552v8.83A.552.552,0,0,1,8150.111,1709.873Zm-8.277-1.1h7.725v-7.727h-7.725Z" transform="translate(-6502.193 -1357.781)"/>
      <path id="Path_2591" data-name="Path 2591" d="M8016.565,1831.677H8005.66V1820.77h10.905Z" transform="translate(-6394.31 -1454.291)" fill="#fff"/>
      <path id="Path_2592" data-name="Path 2592" d="M8014.379,1830.04h-10.906a.553.553,0,0,1-.553-.552v-10.907a.553.553,0,0,1,.553-.552h10.906a.552.552,0,0,1,.551.552v10.907A.552.552,0,0,1,8014.379,1830.04Zm-10.356-1.1h9.8v-9.8h-9.8Z" transform="translate(-6392.121 -1452.102)"/>
      <path id="Path_2593" data-name="Path 2593" d="M8089.876,1831.677H8078.97V1820.77h10.906Z" transform="translate(-6452.863 -1454.291)" fill="#fff"/>
      <path id="Path_2594" data-name="Path 2594" d="M8087.688,1830.04h-10.907a.552.552,0,0,1-.551-.552v-10.907a.552.552,0,0,1,.551-.552h10.907a.553.553,0,0,1,.553.552v10.907A.553.553,0,0,1,8087.688,1830.04Zm-10.354-1.1h9.8v-9.8h-9.8Z" transform="translate(-6450.676 -1452.102)"/>
      <path id="Path_2595" data-name="Path 2595" d="M8163.187,1831.677h-10.907V1820.77h10.907Z" transform="translate(-6511.417 -1454.291)" fill="#fff"/>
      <path id="Path_2596" data-name="Path 2596" d="M8161,1830.04h-10.906a.553.553,0,0,1-.552-.552v-10.907a.553.553,0,0,1,.552-.552H8161a.552.552,0,0,1,.552.552v10.907A.552.552,0,0,1,8161,1830.04Zm-10.355-1.1h9.8v-9.8h-9.8Z" transform="translate(-6509.23 -1452.102)"/>
      <path id="Path_2597" data-name="Path 2597" d="M8016.565,1912.427H8005.66V1901.52h10.905Z" transform="translate(-6394.31 -1518.788)" fill="#fff"/>
      <path id="Path_2598" data-name="Path 2598" d="M8014.379,1910.79h-10.906a.553.553,0,0,1-.553-.552v-10.907a.553.553,0,0,1,.553-.551h10.906a.552.552,0,0,1,.551.551v10.907A.552.552,0,0,1,8014.379,1910.79Zm-10.356-1.1h9.8v-9.8h-9.8Z" transform="translate(-6392.121 -1516.599)"/>
      <path id="Path_2599" data-name="Path 2599" d="M8089.876,1912.427H8078.97V1901.52h10.906Z" transform="translate(-6452.863 -1518.788)" fill="#fff"/>
      <path id="Path_2600" data-name="Path 2600" d="M8087.688,1910.79h-10.907a.552.552,0,0,1-.551-.552v-10.907a.552.552,0,0,1,.551-.551h10.907a.553.553,0,0,1,.553.551v10.907A.553.553,0,0,1,8087.688,1910.79Zm-10.354-1.1h9.8v-9.8h-9.8Z" transform="translate(-6450.676 -1516.599)"/>
      <path id="Path_2601" data-name="Path 2601" d="M8163.187,1912.427h-10.907V1901.52h10.907Z" transform="translate(-6511.417 -1518.788)" fill="#fff"/>
      <path id="Path_2602" data-name="Path 2602" d="M8161,1910.79h-10.906a.553.553,0,0,1-.552-.552v-10.907a.553.553,0,0,1,.552-.551H8161a.552.552,0,0,1,.552.551v10.907A.552.552,0,0,1,8161,1910.79Zm-10.355-1.1h9.8v-9.8h-9.8Z" transform="translate(-6509.23 -1516.599)"/>
      <path id="Path_2603" data-name="Path 2603" d="M8016.565,1993.175H8005.66V1982.27h10.905Z" transform="translate(-6394.31 -1583.285)" fill="#fff"/>
      <path id="Path_2604" data-name="Path 2604" d="M8014.379,1991.538h-10.906a.553.553,0,0,1-.553-.552v-10.905a.553.553,0,0,1,.553-.551h10.906a.552.552,0,0,1,.551.551v10.905A.552.552,0,0,1,8014.379,1991.538Zm-10.356-1.1h9.8v-9.8h-9.8Z" transform="translate(-6392.121 -1581.096)"/>
      <path id="Path_2605" data-name="Path 2605" d="M8089.876,1993.175H8078.97V1982.27h10.906Z" transform="translate(-6452.863 -1583.285)" fill="#fff"/>
      <path id="Path_2606" data-name="Path 2606" d="M8087.688,1991.538h-10.907a.552.552,0,0,1-.551-.552v-10.905a.552.552,0,0,1,.551-.551h10.907a.553.553,0,0,1,.553.551v10.905A.553.553,0,0,1,8087.688,1991.538Zm-10.354-1.1h9.8v-9.8h-9.8Z" transform="translate(-6450.676 -1581.096)"/>
      <path id="Path_2607" data-name="Path 2607" d="M8163.187,1993.175h-10.907V1982.27h10.907Z" transform="translate(-6511.417 -1583.285)" fill="#fff"/>
      <path id="Path_2608" data-name="Path 2608" d="M8161,1991.538h-10.906a.553.553,0,0,1-.552-.552v-10.905a.553.553,0,0,1,.552-.551H8161a.552.552,0,0,1,.552.551v10.905A.552.552,0,0,1,8161,1991.538Zm-10.355-1.1h9.8v-9.8h-9.8Z" transform="translate(-6509.23 -1581.096)"/>
      <path id="Path_2609" data-name="Path 2609" d="M7967.318,2444.977h-16.907V2428.07h16.907Z" transform="translate(-6350.181 -1939.356)" fill="#fff"/>
      <path id="Path_2610" data-name="Path 2610" d="M7965.13,2443.34h-16.909a.552.552,0,0,1-.551-.551v-16.907a.552.552,0,0,1,.551-.552h16.909a.552.552,0,0,1,.552.552v16.907A.552.552,0,0,1,7965.13,2443.34Zm-16.357-1.1h15.806v-15.8h-15.806Z" transform="translate(-6347.991 -1937.167)"/>
      <path id="Path_2611" data-name="Path 2611" d="M8080.967,2444.977h-16.906V2428.07h16.906Z" transform="translate(-6440.955 -1939.356)" fill="#fff"/>
      <path id="Path_2612" data-name="Path 2612" d="M8078.781,2443.34h-16.909a.552.552,0,0,1-.551-.551v-16.907a.552.552,0,0,1,.551-.552h16.909a.552.552,0,0,1,.552.552v16.907A.552.552,0,0,1,8078.781,2443.34Zm-16.357-1.1h15.806v-15.8h-15.806Z" transform="translate(-6438.768 -1937.167)"/>
      <path id="Path_2613" data-name="Path 2613" d="M8194.619,2444.977H8177.71V2428.07h16.909Z" transform="translate(-6531.73 -1939.356)" fill="#fff"/>
      <path id="Path_2614" data-name="Path 2614" d="M8192.431,2443.34h-16.909a.553.553,0,0,1-.552-.551v-16.907a.553.553,0,0,1,.552-.552h16.909a.553.553,0,0,1,.552.552v16.907A.553.553,0,0,1,8192.431,2443.34Zm-16.355-1.1h15.8v-15.8h-15.806v15.8Z" transform="translate(-6529.541 -1937.167)"/>
      <path id="Path_2615" data-name="Path 2615" d="M7967.318,2556.948h-16.907V2540.04h16.907Z" transform="translate(-6350.181 -2028.789)" fill="#fff"/>
      <path id="Path_2616" data-name="Path 2616" d="M7965.13,2555.3h-16.909a.552.552,0,0,1-.551-.552v-16.909a.552.552,0,0,1,.551-.552h16.909a.552.552,0,0,1,.552.552v16.909A.552.552,0,0,1,7965.13,2555.3Zm-16.357-1.1h15.806v-15.8h-15.806Z" transform="translate(-6347.991 -2026.592)"/>
      <path id="Path_2617" data-name="Path 2617" d="M8080.967,2556.948h-16.906V2540.04h16.906Z" transform="translate(-6440.955 -2028.789)" fill="#fff"/>
      <path id="Path_2618" data-name="Path 2618" d="M8078.781,2555.3h-16.909a.552.552,0,0,1-.551-.552v-16.909a.552.552,0,0,1,.551-.552h16.909a.552.552,0,0,1,.552.552v16.909A.552.552,0,0,1,8078.781,2555.3Zm-16.357-1.1h15.806v-15.8h-15.806Z" transform="translate(-6438.768 -2026.592)"/>
      <path id="Path_2619" data-name="Path 2619" d="M8194.619,2556.948H8177.71V2540.04h16.909Z" transform="translate(-6531.73 -2028.789)" fill="#fff"/>
      <path id="Path_2620" data-name="Path 2620" d="M8192.431,2555.3h-16.909a.553.553,0,0,1-.552-.552v-16.909a.553.553,0,0,1,.552-.552h16.909a.553.553,0,0,1,.552.552v16.909A.553.553,0,0,1,8192.431,2555.3Zm-16.355-1.1h15.8v-15.8h-15.806v15.8Z" transform="translate(-6529.541 -2026.592)"/>
      <path id="Path_2621" data-name="Path 2621" d="M7967.318,2668.917h-16.907V2652.01h16.907Z" transform="translate(-6350.181 -2118.222)" fill="#fff"/>
      <path id="Path_2622" data-name="Path 2622" d="M7965.13,2667.29h-16.909a.552.552,0,0,1-.551-.552v-16.907a.552.552,0,0,1,.551-.551h16.909a.552.552,0,0,1,.552.551v16.907A.552.552,0,0,1,7965.13,2667.29Zm-16.357-1.1h15.806v-15.8h-15.806Z" transform="translate(-6347.991 -2116.041)"/>
      <path id="Path_2623" data-name="Path 2623" d="M8080.967,2668.917h-16.906V2652.01h16.906Z" transform="translate(-6440.955 -2118.222)" fill="#fff"/>
      <path id="Path_2624" data-name="Path 2624" d="M8078.781,2667.29h-16.909a.552.552,0,0,1-.551-.552v-16.907a.552.552,0,0,1,.551-.551h16.909a.552.552,0,0,1,.552.551v16.907A.552.552,0,0,1,8078.781,2667.29Zm-16.357-1.1h15.806v-15.8h-15.806Z" transform="translate(-6438.768 -2116.041)"/>
      <path id="Path_2625" data-name="Path 2625" d="M8194.619,2668.917H8177.71V2652.01h16.909Z" transform="translate(-6531.73 -2118.222)" fill="#fff"/>
      <path id="Path_2626" data-name="Path 2626" d="M8192.431,2667.29h-16.909a.553.553,0,0,1-.552-.552v-16.907a.552.552,0,0,1,.552-.551h16.909a.552.552,0,0,1,.552.551v16.907A.553.553,0,0,1,8192.431,2667.29Zm-16.355-1.1h15.8v-15.8h-15.806v15.8Z" transform="translate(-6529.541 -2116.041)"/>
      <path id="Path_2627" data-name="Path 2627" d="M8692.95,1625.712h25.661V1611.17H8692.95Z" transform="translate(-6943.264 -1286.878)" fill="#fff"/>
      <path id="Path_2628" data-name="Path 2628" d="M8691.313,1622.98h24.561v-13.437h-24.561Zm25.111,1.1h-25.663a.552.552,0,0,1-.551-.552v-14.54a.552.552,0,0,1,.551-.551h25.663a.552.552,0,0,1,.552.551v14.54A.553.553,0,0,1,8716.424,1624.083Z" transform="translate(-6941.075 -1284.698)"/>
      <path id="Path_2629" data-name="Path 2629" d="M8746.07,1385.435h4.277V1328.55h-4.277Z" transform="translate(-6985.693 -1061.143)" fill="#fff"/>
      <path id="Path_2630" data-name="Path 2630" d="M8744.433,1382.695h3.174v-55.782h-3.174Zm3.726,1.1h-4.276a.553.553,0,0,1-.553-.552v-56.885a.553.553,0,0,1,.553-.552h4.276a.552.552,0,0,1,.551.552v56.885A.552.552,0,0,1,8748.158,1383.8Z" transform="translate(-6983.503 -1058.955)"/>
      <path id="Path_2631" data-name="Path 2631" d="M8653.631,1704.386h41.486v-23.1h-41.486Z" transform="translate(-6911.859 -1342.885)" fill="#fff"/>
      <path id="Path_2632" data-name="Path 2632" d="M8652,1701.646h40.385v-21.991H8652Zm40.938,1.1h-41.488a.551.551,0,0,1-.551-.552v-23.1a.551.551,0,0,1,.551-.552h41.488a.552.552,0,0,1,.551.552v23.1A.552.552,0,0,1,8692.939,1702.75Z" transform="translate(-6909.679 -1340.697)"/>
      <path id="Path_2633" data-name="Path 2633" d="M8620.691,1841.953h54.746V1784.64h-54.746Z" transform="translate(-6885.55 -1425.433)" fill="#fff"/>
      <path id="Path_2634" data-name="Path 2634" d="M8619.054,1839.221H8672.7v-56.208h-53.644Zm54.2,1.1H8618.5a.553.553,0,0,1-.553-.552v-57.312a.553.553,0,0,1,.553-.552h54.747a.552.552,0,0,1,.551.552v57.312A.552.552,0,0,1,8673.249,1840.324Z" transform="translate(-6883.359 -1423.252)"/>
      <path id="Path_2635" data-name="Path 2635" d="M8588.82,2123.39H8656.4v-71H8588.82Z" transform="translate(-6860.093 -1639.291)" fill="#fff"/>
      <path id="Path_2636" data-name="Path 2636" d="M8587.182,2120.65h66.477v-69.9h-66.477Zm67.027,1.1h-67.578a.551.551,0,0,1-.551-.552v-71a.551.551,0,0,1,.551-.551h67.578a.551.551,0,0,1,.551.551v71A.551.551,0,0,1,8654.209,2121.753Z" transform="translate(-6857.905 -1637.103)"/>
      <path id="Path_2637" data-name="Path 2637" d="M8818.73,2106.18h14.137v-14.14H8818.73Z" transform="translate(-7043.728 -1670.961)" fill="#fff"/>
      <path id="Path_2638" data-name="Path 2638" d="M8817.092,2103.448h13.034v-13.035h-13.034Zm13.586,1.1H8816.54a.552.552,0,0,1-.551-.552v-14.138a.552.552,0,0,1,.551-.551h14.138a.553.553,0,0,1,.553.551V2104A.553.553,0,0,1,8830.678,2104.551Z" transform="translate(-7041.538 -1668.78)"/>
      <path id="Path_2639" data-name="Path 2639" d="M8723.7,2106.18h14.137v-14.14H8723.7Z" transform="translate(-6967.826 -1670.961)" fill="#fff"/>
      <path id="Path_2640" data-name="Path 2640" d="M8722.063,2103.448H8735.1v-13.035h-13.035Zm13.586,1.1h-14.137a.552.552,0,0,1-.551-.552v-14.138a.551.551,0,0,1,.551-.551h14.137a.553.553,0,0,1,.553.551V2104A.553.553,0,0,1,8735.648,2104.551Z" transform="translate(-6965.637 -1668.78)"/>
      <path id="Path_2641" data-name="Path 2641" d="M8628.66,2106.18h14.14v-14.14h-14.14Z" transform="translate(-6891.914 -1670.961)" fill="#fff"/>
      <path id="Path_2642" data-name="Path 2642" d="M8627.023,2103.448h13.034v-13.035h-13.034Zm13.586,1.1h-14.137a.553.553,0,0,1-.553-.552v-14.138a.553.553,0,0,1,.553-.551h14.137a.552.552,0,0,1,.552.551V2104A.552.552,0,0,1,8640.609,2104.551Z" transform="translate(-6889.726 -1668.78)"/>
      <path id="Path_2643" data-name="Path 2643" d="M8818.73,2199.808h14.137V2185.67H8818.73Z" transform="translate(-7043.728 -1745.745)" fill="#fff"/>
      <path id="Path_2644" data-name="Path 2644" d="M8817.092,2197.068h13.034v-13.035h-13.034Zm13.586,1.1H8816.54a.552.552,0,0,1-.551-.552v-14.138a.552.552,0,0,1,.551-.551h14.138a.553.553,0,0,1,.553.551v14.138A.553.553,0,0,1,8830.678,2198.17Z" transform="translate(-7041.538 -1743.557)"/>
      <path id="Path_2645" data-name="Path 2645" d="M8723.7,2199.808h14.137V2185.67H8723.7Z" transform="translate(-6967.826 -1745.745)" fill="#fff"/>
      <path id="Path_2646" data-name="Path 2646" d="M8722.063,2197.068H8735.1v-13.035h-13.035Zm13.586,1.1h-14.137a.551.551,0,0,1-.551-.552v-14.138a.551.551,0,0,1,.551-.551h14.137a.553.553,0,0,1,.553.551v14.138A.553.553,0,0,1,8735.648,2198.17Z" transform="translate(-6965.637 -1743.557)"/>
      <path id="Path_2647" data-name="Path 2647" d="M8628.66,2199.808h14.14V2185.67h-14.14Z" transform="translate(-6891.914 -1745.745)" fill="#fff"/>
      <path id="Path_2648" data-name="Path 2648" d="M8627.023,2197.068h13.034v-13.035h-13.034Zm13.586,1.1h-14.137a.553.553,0,0,1-.553-.552v-14.138a.553.553,0,0,1,.553-.551h14.137a.552.552,0,0,1,.552.551v14.138A.552.552,0,0,1,8640.609,2198.17Z" transform="translate(-6889.726 -1743.557)"/>
      <path id="Path_2649" data-name="Path 2649" d="M8818.73,2293.438h14.137V2279.3H8818.73Z" transform="translate(-7043.728 -1820.529)" fill="#fff"/>
      <path id="Path_2650" data-name="Path 2650" d="M8817.092,2290.7h13.034v-13.034h-13.034Zm13.586,1.1H8816.54a.552.552,0,0,1-.551-.552v-14.138a.552.552,0,0,1,.551-.552h14.138a.553.553,0,0,1,.553.552v14.138A.553.553,0,0,1,8830.678,2291.8Z" transform="translate(-7041.538 -1818.341)"/>
      <path id="Path_2651" data-name="Path 2651" d="M8723.7,2293.438h14.137V2279.3H8723.7Z" transform="translate(-6967.826 -1820.529)" fill="#fff"/>
      <path id="Path_2652" data-name="Path 2652" d="M8722.063,2290.7H8735.1v-13.034h-13.035Zm13.586,1.1h-14.137a.551.551,0,0,1-.551-.552v-14.138a.551.551,0,0,1,.551-.552h14.137a.553.553,0,0,1,.553.552v14.138A.553.553,0,0,1,8735.648,2291.8Z" transform="translate(-6965.637 -1818.341)"/>
      <path id="Path_2653" data-name="Path 2653" d="M8628.66,2293.438h14.14V2279.3h-14.14Z" transform="translate(-6891.914 -1820.529)" fill="#fff"/>
      <path id="Path_2654" data-name="Path 2654" d="M8627.023,2290.7h13.034v-13.034h-13.034Zm13.586,1.1h-14.137a.553.553,0,0,1-.553-.552v-14.138a.553.553,0,0,1,.553-.552h14.137a.552.552,0,0,1,.552.552v14.138A.552.552,0,0,1,8640.609,2291.8Z" transform="translate(-6889.726 -1818.341)"/>
      <path id="Path_2655" data-name="Path 2655" d="M8552.7,2523.4h82.119V2371.14H8552.7Z" transform="translate(-6831.244 -1893.885)" fill="#fff"/>
      <path id="Path_2656" data-name="Path 2656" d="M8551.063,2520.664h81.017V2369.5h-81.017Zm81.568,1.1h-82.119a.553.553,0,0,1-.552-.552V2368.951a.553.553,0,0,1,.552-.551h82.119a.552.552,0,0,1,.551.551v152.264A.552.552,0,0,1,8632.631,2521.767Z" transform="translate(-6829.055 -1891.696)"/>
      <path id="Path_2657" data-name="Path 2657" d="M8794.111,1711.51h8.826v-8.83h-8.826Z" transform="translate(-7024.064 -1359.97)" fill="#fff"/>
      <path id="Path_2658" data-name="Path 2658" d="M8792.472,1708.77h7.726v-7.727h-7.726Zm8.28,1.1h-8.83a.553.553,0,0,1-.553-.552v-8.83a.553.553,0,0,1,.553-.552h8.83a.552.552,0,0,1,.551.552v8.83A.552.552,0,0,1,8800.752,1709.873Z" transform="translate(-7021.874 -1357.781)"/>
      <path id="Path_2659" data-name="Path 2659" d="M8734.76,1711.51h8.83v-8.83h-8.83Z" transform="translate(-6976.659 -1359.97)" fill="#fff"/>
      <path id="Path_2660" data-name="Path 2660" d="M8733.122,1708.77h7.726v-7.727h-7.726Zm8.28,1.1h-8.831a.553.553,0,0,1-.552-.552v-8.83a.553.553,0,0,1,.552-.552h8.831a.552.552,0,0,1,.551.552v8.83A.552.552,0,0,1,8741.4,1709.873Z" transform="translate(-6974.47 -1357.781)"/>
      <path id="Path_2661" data-name="Path 2661" d="M8675.41,1711.51h8.83v-8.83h-8.83Z" transform="translate(-6929.255 -1359.97)" fill="#fff"/>
      <path id="Path_2662" data-name="Path 2662" d="M8673.772,1708.77h7.728v-7.727h-7.728Zm8.279,1.1h-8.83a.553.553,0,0,1-.552-.552v-8.83a.553.553,0,0,1,.552-.552h8.83a.552.552,0,0,1,.551.552v8.83A.552.552,0,0,1,8682.052,1709.873Z" transform="translate(-6927.066 -1357.781)"/>
      <path id="Path_2663" data-name="Path 2663" d="M8802.91,1831.677h10.907V1820.77H8802.91Z" transform="translate(-7031.092 -1454.291)" fill="#fff"/>
      <path id="Path_2664" data-name="Path 2664" d="M8801.274,1828.937h9.8v-9.8h-9.8Zm10.354,1.1h-10.906a.552.552,0,0,1-.551-.552v-10.907a.552.552,0,0,1,.551-.552h10.906a.553.553,0,0,1,.552.552v10.907A.553.553,0,0,1,8811.628,1830.04Z" transform="translate(-7028.904 -1452.102)"/>
      <path id="Path_2665" data-name="Path 2665" d="M8729.6,1831.677H8740.5V1820.77H8729.6Z" transform="translate(-6972.537 -1454.291)" fill="#fff"/>
      <path id="Path_2666" data-name="Path 2666" d="M8727.963,1828.937h9.8v-9.8h-9.8Zm10.354,1.1h-10.905a.553.553,0,0,1-.552-.552v-10.907a.553.553,0,0,1,.552-.552h10.905a.553.553,0,0,1,.552.552v10.907A.553.553,0,0,1,8738.317,1830.04Z" transform="translate(-6970.349 -1452.102)"/>
      <path id="Path_2667" data-name="Path 2667" d="M8656.29,1831.677h10.9V1820.77h-10.9Z" transform="translate(-6913.983 -1454.291)" fill="#fff"/>
      <path id="Path_2668" data-name="Path 2668" d="M8654.654,1828.937h9.8v-9.8h-9.8Zm10.354,1.1h-10.9a.553.553,0,0,1-.553-.552v-10.907a.553.553,0,0,1,.553-.552h10.9a.551.551,0,0,1,.551.552v10.907A.551.551,0,0,1,8665.008,1830.04Z" transform="translate(-6911.795 -1452.102)"/>
      <path id="Path_2669" data-name="Path 2669" d="M8802.91,1912.427h10.907V1901.52H8802.91Z" transform="translate(-7031.092 -1518.788)" fill="#fff"/>
      <path id="Path_2670" data-name="Path 2670" d="M8801.274,1909.687h9.8v-9.8h-9.8Zm10.354,1.1h-10.906a.552.552,0,0,1-.551-.552v-10.907a.552.552,0,0,1,.551-.551h10.906a.553.553,0,0,1,.552.551v10.907A.553.553,0,0,1,8811.628,1910.79Z" transform="translate(-7028.904 -1516.599)"/>
      <path id="Path_2671" data-name="Path 2671" d="M8729.6,1912.427H8740.5V1901.52H8729.6Z" transform="translate(-6972.537 -1518.788)" fill="#fff"/>
      <path id="Path_2672" data-name="Path 2672" d="M8727.963,1909.687h9.8v-9.8h-9.8Zm10.354,1.1h-10.905a.553.553,0,0,1-.552-.552v-10.907a.553.553,0,0,1,.552-.551h10.905a.553.553,0,0,1,.552.551v10.907A.553.553,0,0,1,8738.317,1910.79Z" transform="translate(-6970.349 -1516.599)"/>
      <path id="Path_2673" data-name="Path 2673" d="M8656.29,1912.427h10.9V1901.52h-10.9Z" transform="translate(-6913.983 -1518.788)" fill="#fff"/>
      <path id="Path_2674" data-name="Path 2674" d="M8654.654,1909.687h9.8v-9.8h-9.8Zm10.354,1.1h-10.9a.553.553,0,0,1-.553-.552v-10.907a.553.553,0,0,1,.553-.551h10.9a.551.551,0,0,1,.551.551v10.907A.551.551,0,0,1,8665.008,1910.79Z" transform="translate(-6911.795 -1516.599)"/>
      <path id="Path_2675" data-name="Path 2675" d="M8802.91,1993.175h10.907V1982.27H8802.91Z" transform="translate(-7031.092 -1583.285)" fill="#fff"/>
      <path id="Path_2676" data-name="Path 2676" d="M8801.274,1990.435h9.8v-9.8h-9.8Zm10.354,1.1h-10.906a.552.552,0,0,1-.551-.552v-10.905a.552.552,0,0,1,.551-.551h10.906a.553.553,0,0,1,.552.551v10.905A.553.553,0,0,1,8811.628,1991.538Z" transform="translate(-7028.904 -1581.096)"/>
      <path id="Path_2677" data-name="Path 2677" d="M8729.6,1993.175H8740.5V1982.27H8729.6Z" transform="translate(-6972.537 -1583.285)" fill="#fff"/>
      <path id="Path_2678" data-name="Path 2678" d="M8727.963,1990.435h9.8v-9.8h-9.8Zm10.354,1.1h-10.905a.553.553,0,0,1-.552-.552v-10.905a.553.553,0,0,1,.552-.551h10.905a.553.553,0,0,1,.552.551v10.905A.553.553,0,0,1,8738.317,1991.538Z" transform="translate(-6970.349 -1581.096)"/>
      <path id="Path_2679" data-name="Path 2679" d="M8656.29,1993.175h10.9V1982.27h-10.9Z" transform="translate(-6913.983 -1583.285)" fill="#fff"/>
      <path id="Path_2680" data-name="Path 2680" d="M8654.654,1990.435h9.8v-9.8h-9.8Zm10.354,1.1h-10.9a.553.553,0,0,1-.553-.552v-10.905a.553.553,0,0,1,.553-.551h10.9a.551.551,0,0,1,.551.551v10.905A.551.551,0,0,1,8665.008,1991.538Z" transform="translate(-6911.795 -1581.096)"/>
      <path id="Path_2681" data-name="Path 2681" d="M8828.34,2444.977h16.909V2428.07H8828.34Z" transform="translate(-7051.403 -1939.356)" fill="#fff"/>
      <path id="Path_2682" data-name="Path 2682" d="M8826.712,2442.238h15.8v-15.8h-15.8Zm16.356,1.1h-16.907a.552.552,0,0,1-.552-.551v-16.907a.552.552,0,0,1,.552-.552h16.907a.553.553,0,0,1,.551.552v16.907A.552.552,0,0,1,8843.068,2443.34Z" transform="translate(-7049.222 -1937.167)"/>
      <path id="Path_2683" data-name="Path 2683" d="M8714.69,2444.977H8731.6V2428.07H8714.69Z" transform="translate(-6960.628 -1939.356)" fill="#fff"/>
      <path id="Path_2684" data-name="Path 2684" d="M8713.052,2442.238h15.8v-15.8h-15.8Zm16.356,1.1H8712.5a.553.553,0,0,1-.552-.551v-16.907a.553.553,0,0,1,.552-.552h16.907a.552.552,0,0,1,.552.552v16.907A.552.552,0,0,1,8729.408,2443.34Z" transform="translate(-6958.439 -1937.167)"/>
      <path id="Path_2685" data-name="Path 2685" d="M8601.04,2444.977h16.907V2428.07H8601.04Z" transform="translate(-6869.854 -1939.356)" fill="#fff"/>
      <path id="Path_2686" data-name="Path 2686" d="M8599.4,2442.238h15.8v-15.8h-15.8Zm16.355,1.1H8598.85a.552.552,0,0,1-.551-.551v-16.907a.553.553,0,0,1,.551-.552h16.908a.551.551,0,0,1,.551.552v16.907A.551.551,0,0,1,8615.758,2443.34Z" transform="translate(-6867.664 -1937.167)"/>
      <path id="Path_2687" data-name="Path 2687" d="M8828.34,2556.948h16.909V2540.04H8828.34Z" transform="translate(-7051.403 -2028.789)" fill="#fff"/>
      <path id="Path_2688" data-name="Path 2688" d="M8826.712,2554.2h15.8v-15.8h-15.8Zm16.356,1.1h-16.907a.552.552,0,0,1-.552-.552v-16.909a.552.552,0,0,1,.552-.552h16.907a.552.552,0,0,1,.551.552v16.909A.553.553,0,0,1,8843.068,2555.3Z" transform="translate(-7049.222 -2026.592)"/>
      <path id="Path_2689" data-name="Path 2689" d="M8714.69,2556.948H8731.6V2540.04H8714.69Z" transform="translate(-6960.628 -2028.789)" fill="#fff"/>
      <path id="Path_2690" data-name="Path 2690" d="M8713.052,2554.2h15.8v-15.8h-15.8Zm16.356,1.1H8712.5a.553.553,0,0,1-.552-.552v-16.909a.553.553,0,0,1,.552-.552h16.907a.552.552,0,0,1,.552.552v16.909A.552.552,0,0,1,8729.408,2555.3Z" transform="translate(-6958.439 -2026.592)"/>
      <path id="Path_2691" data-name="Path 2691" d="M8601.04,2556.948h16.907V2540.04H8601.04Z" transform="translate(-6869.854 -2028.789)" fill="#fff"/>
      <path id="Path_2692" data-name="Path 2692" d="M8599.4,2554.2h15.8v-15.8h-15.8Zm16.355,1.1H8598.85a.553.553,0,0,1-.551-.552v-16.909a.552.552,0,0,1,.551-.552h16.908a.551.551,0,0,1,.551.552v16.909A.551.551,0,0,1,8615.758,2555.3Z" transform="translate(-6867.664 -2026.592)"/>
      <path id="Path_2693" data-name="Path 2693" d="M8828.34,2668.917h16.909V2652.01H8828.34Z" transform="translate(-7051.403 -2118.222)" fill="#fff"/>
      <path id="Path_2694" data-name="Path 2694" d="M8826.712,2666.187h15.8v-15.8h-15.8Zm16.356,1.1h-16.907a.552.552,0,0,1-.552-.552v-16.907a.552.552,0,0,1,.552-.551h16.907a.552.552,0,0,1,.551.551v16.907A.552.552,0,0,1,8843.068,2667.29Z" transform="translate(-7049.222 -2116.041)"/>
      <path id="Path_2695" data-name="Path 2695" d="M8714.69,2668.917H8731.6V2652.01H8714.69Z" transform="translate(-6960.628 -2118.222)" fill="#fff"/>
      <path id="Path_2696" data-name="Path 2696" d="M8713.052,2666.187h15.8v-15.8h-15.8Zm16.356,1.1H8712.5a.553.553,0,0,1-.552-.552v-16.907a.552.552,0,0,1,.552-.551h16.907a.552.552,0,0,1,.552.551v16.907A.552.552,0,0,1,8729.408,2667.29Z" transform="translate(-6958.439 -2116.041)"/>
      <path id="Path_2697" data-name="Path 2697" d="M8601.04,2668.917h16.907V2652.01H8601.04Z" transform="translate(-6869.854 -2118.222)" fill="#fff"/>
      <path id="Path_2698" data-name="Path 2698" d="M8599.4,2666.187h15.8v-15.8h-15.8Zm16.355,1.1H8598.85a.552.552,0,0,1-.551-.552v-16.907a.552.552,0,0,1,.551-.551h16.908a.551.551,0,0,1,.551.551v16.907A.551.551,0,0,1,8615.758,2667.29Z" transform="translate(-6867.664 -2116.041)"/>
      <path id="Path_2699" data-name="Path 2699" d="M6319.063,1166.609a.551.551,0,1,1,0-1.1,7.427,7.427,0,0,0,5.251-12.689l-.026-.026a7.412,7.412,0,0,0-5.227-2.158.551.551,0,1,1,0-1.1,8.513,8.513,0,0,1,6,2.48l.031.03a8.54,8.54,0,0,1-6.031,14.572Z" transform="translate(-5046.743 -918.156)" fill="#111"/>
      <path id="Path_2700" data-name="Path 2700" d="M6291.507,1149.52a.552.552,0,1,1,0,1.1h-6.946a.552.552,0,0,1,0-1.1Z" transform="translate(-5019.187 -918.148)" fill="#111"/>
      <path id="Path_2701" data-name="Path 2701" d="M5901.349,973.557a.551.551,0,1,1-1-.453,18.353,18.353,0,0,0,1.216-3.685,18.086,18.086,0,0,0,.408-3.834,18.326,18.326,0,0,0-18.33-18.33c-.26,0-.5.008-.73.022l-.739.052a.552.552,0,0,1-.565-.374,28.5,28.5,0,0,0-52.947.662.55.55,0,0,1-.663.332,18.9,18.9,0,0,0-2.481-.521,17.77,17.77,0,0,0-2.476-.173,18.3,18.3,0,0,0-16.705,25.85.551.551,0,0,1-1,.453,19.509,19.509,0,0,1-1.29-3.9,19.428,19.428,0,0,1,19-23.5,18.676,18.676,0,0,1,2.627.187,19.873,19.873,0,0,1,2.149.425,29.6,29.6,0,0,1,54.666-.562l.371-.022c.273-.016.539-.026.791-.026a19.42,19.42,0,0,1,19,23.5,19.636,19.636,0,0,1-1.291,3.9Z" transform="translate(-4635.472 -741.406)" fill="#111"/>
      <path id="Path_2702" data-name="Path 2702" d="M5784.073,1149.52a.552.552,0,0,1,0,1.1h-7.161a.552.552,0,1,1,0-1.1Z" transform="translate(-4613.714 -918.148)" fill="#111"/>
      <path id="Path_2703" data-name="Path 2703" d="M5745.2,1149.5a.552.552,0,0,1,0,1.1,7.426,7.426,0,0,0-5.251,12.688l.023.026a7.415,7.415,0,0,0,5.228,2.158.552.552,0,0,1,0,1.1,8.51,8.51,0,0,1-6-2.48l-.032-.03a8.54,8.54,0,0,1,6.033-14.572Z" transform="translate(-4582.006 -918.132)" fill="#111"/>
      <path id="Path_2704" data-name="Path 2704" d="M5776.9,1230a.551.551,0,1,1,0-1.1h56.432a.551.551,0,1,1,0,1.1Z" transform="translate(-4613.707 -981.551)" fill="#111"/>
      <path id="Path_2705" data-name="Path 2705" d="M6099.771,1230a.551.551,0,1,1,0-1.1H6117.2a.551.551,0,1,1,0,1.1Z" transform="translate(-4871.591 -981.551)" fill="#111"/>
      <path id="Path_2706" data-name="Path 2706" d="M5579.861,1374.263a.552.552,0,1,1,0-1.1h91.532a.552.552,0,0,1,0,1.1Z" transform="translate(-4456.326 -1096.774)" fill="#111"/>
      <path id="Path_2707" data-name="Path 2707" d="M5788.671,1434.653a.551.551,0,1,1,0-1.1H5882.6a.551.551,0,0,1,0,1.1Z" transform="translate(-4623.107 -1145.009)" fill="#111"/>
      <path id="Path_2708" data-name="Path 2708" d="M5969.267,1556.878a.551.551,0,0,1-.778.779l-.021-.02a5.756,5.756,0,0,1-.124-8.109l.027-.028a5.756,5.756,0,0,1,8.109-.125l.029.028a5.756,5.756,0,0,1,.124,8.109l-.008.008a.55.55,0,1,1-.779-.777,4.647,4.647,0,0,0-.106-6.55l-.03-.028a4.65,4.65,0,0,0-6.552.107l-.028.03a4.648,4.648,0,0,0,.107,6.55l.029.028Z" transform="translate(-4765.772 -1236.235)" fill="#111"/>
      <path id="Path_2709" data-name="Path 2709" d="M4768.08,3262.92h246.429v.835H4768.08Z" transform="translate(-3808.378 -2606.17)"/>
      <path id="Path_2710" data-name="Path 2710" d="M6480.041,3262.92h21.185v.835h-21.185Z" transform="translate(-5175.761 -2606.17)"/>
      <path id="Path_2711" data-name="Path 2711" d="M6687.02,3262.92h87.557v.835H6687.02Z" transform="translate(-5341.081 -2606.17)"/>
      <path id="Path_2712" data-name="Path 2712" d="M5108.36,3365.31H5135.9v.834H5108.36Z" transform="translate(-4080.167 -2687.951)"/>
      <path id="Path_2713" data-name="Path 2713" d="M5322.36,3365.31h206.889v.834H5322.36Z" transform="translate(-4251.094 -2687.951)"/>
      <path id="Path_2714" data-name="Path 2714" d="M6437.939,3365.31h16.241v.834h-16.241Z" transform="translate(-5142.134 -2687.951)"/>
      <path id="Path_2715" data-name="Path 2715" d="M7813.13,3262.92h179.35v.835H7813.13Z" transform="translate(-6240.531 -2606.17)"/>
      <path id="Path_2716" data-name="Path 2716" d="M8784.88,3262.92h45.192v.835H8784.88Z" transform="translate(-7016.691 -2606.17)"/>
      <path id="Path_2717" data-name="Path 2717" d="M6771.21,3365.31h26.832v.834H6771.21Z" transform="translate(-5408.325 -2687.951)"/>
      <path id="Path_2718" data-name="Path 2718" d="M7013.271,3365.31h353.053v.834H7013.271Z" transform="translate(-5601.665 -2687.951)"/>
      <path id="Path_2719" data-name="Path 2719" d="M8914.68,3365.31h45.19v.834h-45.19Z" transform="translate(-7120.365 -2687.951)"/>
      <path id="Path_2720" data-name="Path 2720" d="M9283.03,3365.31h51.544v.834H9283.03Z" transform="translate(-7414.575 -2687.951)"/>
      <path id="Path_2721" data-name="Path 2721" d="M4540.05,3500.28H4557.7v.833H4540.05Z" transform="translate(-3626.245 -2795.755)"/>
      <path id="Path_2722" data-name="Path 2722" d="M4701.42,3500.28h33.893v.833H4701.42Z" transform="translate(-3755.135 -2795.755)"/>
      <path id="Path_2723" data-name="Path 2723" d="M4999.609,3500.28h175.819v.833H4999.609Z" transform="translate(-3993.306 -2795.755)"/>
      <path id="Path_2724" data-name="Path 2724" d="M6041.521,3500.28h15.534v.833h-15.534Z" transform="translate(-4825.505 -2795.755)"/>
      <path id="Path_2725" data-name="Path 2725" d="M6230.96,3500.28h119.333v.833H6230.96Z" transform="translate(-4976.814 -2795.755)"/>
      <path id="Path_2726" data-name="Path 2726" d="M6925.569,3500.28h35.307v.833h-35.307Z" transform="translate(-5531.615 -2795.755)"/>
      <path id="Path_2727" data-name="Path 2727" d="M7304.451,3500.28h23.3v.833h-23.3Z" transform="translate(-5834.237 -2795.755)"/>
      <path id="Path_2728" data-name="Path 2728" d="M7588.61,3500.28H7722.77v.833H7588.61Z" transform="translate(-6061.202 -2795.755)"/>
      <path id="Path_2729" data-name="Path 2729" d="M8325.31,3500.28h44.483v.833H8325.31Z" transform="translate(-6649.621 -2795.755)"/>
      <path id="Path_2730" data-name="Path 2730" d="M4577.106,1874.94H4816.27v9.8h-239.58v-9.8Zm238.328.833H4577.523v8.136h237.911Z" transform="translate(-3655.51 -1497.558)"/>
      <path id="Path_2731" data-name="Path 2731" d="M4619.547,1919.5h222.932v7.667H4619.13V1919.5Zm222.1.833H4619.964v6h221.682Z" transform="translate(-3689.408 -1533.149)"/>
      <path id="Path_2732" data-name="Path 2732" d="M4619.547,1919.5h222.932v24.324H4619.13V1919.5Zm222.1.833H4619.964v22.656h221.682Z" transform="translate(-3689.408 -1533.149)"/>
      <path id="Path_2733" data-name="Path 2733" d="M4619.547,1919.5h222.932v131.524H4619.13V1919.5Zm222.1.833H4619.964v129.855h221.682Z" transform="translate(-3689.408 -1533.149)"/>
      <path id="Path_2734" data-name="Path 2734" d="M4776.567,2167.76h61.066v63.191H4776.15V2167.76Zm60.23.833h-59.813v61.522H4836.8Z" transform="translate(-3814.824 -1731.44)"/>
      <path id="Path_2735" data-name="Path 2735" d="M4816.878,2209.21h44.835q.023,23.25,0,46.5H4816.46v-46.5h.416Zm44,.833h-43.584v44.836h43.584Z" transform="translate(-3847.02 -1764.547)"/>
      <path id="Path_2736" data-name="Path 2736" d="M4816.887,2209.21h44.836v16.408H4816.47V2209.21Zm44,.833H4817.3v14.742h43.584Z" transform="translate(-3847.028 -1764.547)"/>
      <path id="Path_2737" data-name="Path 2737" d="M5105.467,2167.76h20.063v63.191h-20.48V2167.76Zm19.23.833h-18.813v61.522H5124.7Z" transform="translate(-4077.524 -1731.44)"/>
      <path id="Path_2738" data-name="Path 2738" d="M5334.636,2167.76H5395.7q.031,31.592,0,63.191H5334.22V2167.76Zm60.23.833h-59.813v61.522h59.813Z" transform="translate(-4260.567 -1731.44)"/>
      <path id="Path_2739" data-name="Path 2739" d="M5374.946,2209.21h44.837v46.5H5374.53v-46.5Zm44,.833h-43.584v44.836h43.584Z" transform="translate(-4292.764 -1764.547)"/>
      <path id="Path_2740" data-name="Path 2740" d="M5374.946,2209.21h44.837v16.408H5374.53V2209.21Zm44,.833h-43.584v14.742h43.584Z" transform="translate(-4292.764 -1764.547)"/>
      <path id="Path_2741" data-name="Path 2741" d="M4649.665,2576.489h209.722v-6.854H4649.665Zm210.139.833H4648.829V2568.8h211.392v8.522Z" transform="translate(-3713.129 -2051.76)"/>
      <path id="Path_2742" data-name="Path 2742" d="M4619.964,2712.92h109.784v-75.168h58.917v75.168h52.98V2607.835H4619.964Zm110.2.833H4619.13V2607h223.349v106.753H4787.83v-75.169h-57.25v75.169h-.417Z" transform="translate(-3689.408 -2082.271)"/>
      <path id="Path_2743" data-name="Path 2743" d="M5137.713,2674.136h71.773v-13.26h-71.773Zm72.19.833h-73.022V2660.04h73.439v14.929Z" transform="translate(-4102.948 -2124.636)"/>
      <path id="Path_2744" data-name="Path 2744" d="M5217.928,2797.98h38.854V2866.3H5217.51V2797.98h.417Zm38.022.833h-37.6v66.646h37.6v-66.647Z" transform="translate(-4167.348 -2234.812)"/>
      <path id="Path_2745" data-name="Path 2745" d="M5251.887,2942.27h8.105v5.96h-8.522v-5.96Zm7.27.833H5252.3v4.292h6.854Z" transform="translate(-4194.473 -2350.059)"/>
      <path id="Path_2746" data-name="Path 2746" d="M4412.773,2239.515H4360.25v-8.1h52.939v8.1Zm-51.687-.833h51.271v-6.427h-51.271Z" transform="translate(-3482.635 -1782.287)"/>
      <path id="Path_2747" data-name="Path 2747" d="M4412.365,2268.333h-51.271v16.249h51.271Zm-51.688-.833H4413.2v17.918H4360.26V2267.5Z" transform="translate(-3482.643 -1811.105)"/>
      <path id="Path_2748" data-name="Path 2748" d="M4412.773,2460.406H4360.25V2352.37h52.939v108.035Zm-51.687-.833h51.271V2353.206h-51.271Z" transform="translate(-3482.635 -1878.892)"/>
      <path id="Path_2749" data-name="Path 2749" d="M4483.955,2527.592H4449.37V2464.83h35v62.762Zm-33.75-.833h33.334v-61.093h-33.334Z" transform="translate(-3553.817 -1968.717)"/>
      <path id="Path_2750" data-name="Path 2750" d="M4412.365,2885.813h-51.271v49.136h51.271Zm-51.688-.833H4413.2v50.8H4360.26v-50.8Z" transform="translate(-3482.643 -2304.301)"/>
      <path id="Path_2751" data-name="Path 2751" d="M7672.343,1868.048a.552.552,0,1,1,0-1.1,7.426,7.426,0,0,0,5.251-12.688l-.026-.026a7.408,7.408,0,0,0-5.227-2.158.551.551,0,1,1,0-1.1,8.51,8.51,0,0,1,6,2.479l.032.03a8.54,8.54,0,0,1-6.032,14.572Z" transform="translate(-6127.639 -1478.412)" fill="#111"/>
      <path id="Path_2752" data-name="Path 2752" d="M7644.787,1850.96a.552.552,0,1,1,0,1.1h-6.946a.552.552,0,0,1,0-1.1Z" transform="translate(-6100.083 -1478.404)" fill="#111"/>
      <path id="Path_2753" data-name="Path 2753" d="M7254.628,1675a.551.551,0,0,1-1-.453,18.232,18.232,0,0,0,1.216-3.686,18.021,18.021,0,0,0,.409-3.834,18.328,18.328,0,0,0-18.33-18.33c-.26,0-.5.008-.731.022l-.738.052a.551.551,0,0,1-.565-.375,28.5,28.5,0,0,0-52.948.662.548.548,0,0,1-.662.332,18.962,18.962,0,0,0-2.481-.521,17.78,17.78,0,0,0-2.476-.173,18.305,18.305,0,0,0-16.706,25.85.551.551,0,1,1-1,.453,19.569,19.569,0,0,1-1.29-3.9,19.429,19.429,0,0,1,19-23.5,18.672,18.672,0,0,1,2.626.187,19.921,19.921,0,0,1,2.15.425,29.6,29.6,0,0,1,54.666-.562l.371-.022c.273-.016.539-.026.791-.026a19.416,19.416,0,0,1,19,23.5,19.634,19.634,0,0,1-1.29,3.9Z" transform="translate(-5716.369 -1301.663)" fill="#111"/>
      <path id="Path_2754" data-name="Path 2754" d="M7137.353,1850.96a.552.552,0,1,1,0,1.1h-7.161a.552.552,0,1,1,0-1.1Z" transform="translate(-5694.612 -1478.404)" fill="#111"/>
      <path id="Path_2755" data-name="Path 2755" d="M7098.5,1850.944a.552.552,0,1,1,0,1.1,7.426,7.426,0,0,0-5.25,12.688l.025.026a7.412,7.412,0,0,0,5.228,2.158.552.552,0,1,1,0,1.1,8.51,8.51,0,0,1-6-2.48l-.032-.03a8.54,8.54,0,0,1,6.032-14.573Z" transform="translate(-5662.918 -1478.388)" fill="#111"/>
      <path id="Path_2756" data-name="Path 2756" d="M7130.192,1931.443a.552.552,0,1,1,0-1.1h56.432a.552.552,0,1,1,0,1.1Z" transform="translate(-5694.612 -1541.807)" fill="#111"/>
      <path id="Path_2757" data-name="Path 2757" d="M7453.062,1931.443a.552.552,0,1,1,0-1.1h17.431a.552.552,0,0,1,0,1.1Z" transform="translate(-5952.496 -1541.807)" fill="#111"/>
      <path id="Path_2758" data-name="Path 2758" d="M6933.151,2075.7a.552.552,0,0,1,0-1.1h91.533a.552.552,0,0,1,0,1.1Z" transform="translate(-5537.232 -1657.031)" fill="#111"/>
      <path id="Path_2759" data-name="Path 2759" d="M7141.951,2136.093a.552.552,0,1,1,0-1.1h93.928a.552.552,0,1,1,0,1.1Z" transform="translate(-5704.004 -1705.266)" fill="#111"/>
      <path id="Path_2760" data-name="Path 2760" d="M7322.547,2258.317a.551.551,0,0,1-.778.779l-.021-.02a5.756,5.756,0,0,1-.124-8.109l.027-.028a5.757,5.757,0,0,1,8.11-.125l.03.028a5.757,5.757,0,0,1,.124,8.11l-.008.008a.55.55,0,1,1-.779-.777,4.649,4.649,0,0,0-.1-6.549l-.029-.028a4.651,4.651,0,0,0-6.552.106l-.028.03a4.647,4.647,0,0,0,.106,6.55l.032.028Z" transform="translate(-5846.669 -1796.492)" fill="#111"/>
      <path id="Path_2761" data-name="Path 2761" d="M9415.322,918.628a.552.552,0,0,1,0-1.1,7.425,7.425,0,0,0,5.252-12.689l-.025-.026a7.416,7.416,0,0,0-5.227-2.158.552.552,0,1,1,0-1.1,8.5,8.5,0,0,1,6,2.48l.033.03a8.54,8.54,0,0,1-6.031,14.572Z" transform="translate(-7519.798 -720.088)" fill="#111"/>
      <path id="Path_2762" data-name="Path 2762" d="M9387.768,901.54a.551.551,0,1,1,0,1.1h-6.945a.551.551,0,1,1,0-1.1Z" transform="translate(-7492.242 -720.08)" fill="#111"/>
      <path id="Path_2763" data-name="Path 2763" d="M8997.606,725.567a.551.551,0,1,1-1-.453,18.29,18.29,0,0,0,1.216-3.685,18.021,18.021,0,0,0,.409-3.834,18.328,18.328,0,0,0-18.33-18.33c-.26,0-.5.008-.731.022l-.738.052a.551.551,0,0,1-.565-.374,28.5,28.5,0,0,0-52.948.662.549.549,0,0,1-.663.332,18.9,18.9,0,0,0-2.481-.521,17.765,17.765,0,0,0-2.475-.173,18.3,18.3,0,0,0-16.706,25.85.551.551,0,0,1-1,.453,19.508,19.508,0,0,1-1.29-3.9,19.429,19.429,0,0,1,19-23.5,18.686,18.686,0,0,1,2.627.187,19.873,19.873,0,0,1,2.149.425,29.6,29.6,0,0,1,54.666-.562l.371-.022c.273-.016.54-.026.792-.026a19.412,19.412,0,0,1,19,23.5,19.63,19.63,0,0,1-1.289,3.9Z" transform="translate(-7108.527 -543.331)" fill="#111"/>
      <path id="Path_2764" data-name="Path 2764" d="M8880.333,901.54a.551.551,0,1,1,0,1.1h-7.162a.551.551,0,0,1,0-1.1Z" transform="translate(-7086.771 -720.08)" fill="#111"/>
      <path id="Path_2765" data-name="Path 2765" d="M8841.479,901.524a.552.552,0,1,1,0,1.1,7.427,7.427,0,0,0-5.251,12.688l.025.026a7.412,7.412,0,0,0,5.228,2.158.552.552,0,1,1,0,1.1,8.513,8.513,0,0,1-6-2.48l-.032-.03a8.54,8.54,0,0,1,6.032-14.572Z" transform="translate(-7055.078 -720.064)" fill="#111"/>
      <path id="Path_2766" data-name="Path 2766" d="M8873.171,982.023a.552.552,0,0,1,0-1.1H8929.6a.552.552,0,1,1,0,1.1Z" transform="translate(-7086.771 -783.483)" fill="#111"/>
      <path id="Path_2767" data-name="Path 2767" d="M9196.03,982.023a.552.552,0,0,1,0-1.1h17.431a.552.552,0,1,1,0,1.1Z" transform="translate(-7344.646 -783.483)" fill="#111"/>
      <path id="Path_2768" data-name="Path 2768" d="M8676.121,1126.283a.551.551,0,1,1,0-1.1h91.532a.551.551,0,0,1,0,1.1Z" transform="translate(-6929.382 -898.707)" fill="#111"/>
      <path id="Path_2769" data-name="Path 2769" d="M8884.933,1186.663a.552.552,0,1,1,0-1.1h93.927a.552.552,0,1,1,0,1.1Z" transform="translate(-7096.164 -946.934)" fill="#111"/>
      <path id="Path_2770" data-name="Path 2770" d="M9065.527,1308.9a.551.551,0,0,1-.779.779l-.02-.02a5.757,5.757,0,0,1-.125-8.109l.029-.028a5.756,5.756,0,0,1,8.109-.125l.029.028a5.758,5.758,0,0,1,.125,8.109l-.008.008a.55.55,0,1,1-.779-.777,4.65,4.65,0,0,0-.1-6.549l-.031-.028a4.649,4.649,0,0,0-6.551.107l-.029.03a4.65,4.65,0,0,0,.107,6.55l.031.028Z" transform="translate(-7238.828 -1038.168)" fill="#111"/>
      <path id="Path_2771" data-name="Path 2771" d="M6154.214,2832.73v60.9h-.834v-60.9Z" transform="translate(-4914.85 -2262.567)"/>
      <path id="Path_2772" data-name="Path 2772" d="M5951.613,2991.57V3020.5h-.832V2991.57Z" transform="translate(-4753.029 -2389.436)"/>
      <path id="Path_2773" data-name="Path 2773" d="M5855.048,2729.01a25.31,25.31,0,1,1-17.9,7.414A25.232,25.232,0,0,1,5855.048,2729.01Zm17.306,8a24.476,24.476,0,1,0,7.167,17.306A24.4,24.4,0,0,0,5872.354,2737.013Z" transform="translate(-4656.351 -2179.723)"/>
      <path id="Path_2774" data-name="Path 2774" d="M6024.036,2629.012a35.907,35.907,0,1,1-23.016,63.448l-.352-.294.326-.322a24.48,24.48,0,0,0-9.64-40.68l-.436-.141.184-.421a35.906,35.906,0,0,1,32.933-21.593Zm24.8,11.1a35.073,35.073,0,0,0-56.78,10.4,25.3,25.3,0,0,1,9.853,41.592,35.066,35.066,0,0,0,46.926-52Z" transform="translate(-4785.089 -2099.851)"/>
      <path id="Path_2775" data-name="Path 2775" d="M7539.381,2766.872a23.9,23.9,0,1,1-29.366,0l.31-.242.258.294a18.771,18.771,0,0,0,28.231,0l.258-.294Zm6.044,8.735a23.164,23.164,0,0,0-6.251-7.84,19.608,19.608,0,0,1-28.956,0,23.048,23.048,0,1,0,35.2,7.84Z" transform="translate(-5991.075 -2209.772)"/>
      <path id="Path_2776" data-name="Path 2776" d="M7553.9,2629.456a19.626,19.626,0,1,1-24.536,0l.3-.246.265.29a15.82,15.82,0,0,0,23.4,0l.265-.29.306.246Zm4.68,7.19a18.843,18.843,0,0,0-4.9-6.3,16.649,16.649,0,0,1-24.093,0,18.78,18.78,0,1,0,28.994,6.3Z" transform="translate(-6008.007 -2100.011)"/>
      <path id="Path_2777" data-name="Path 2777" d="M7553.345,2494.85a16.664,16.664,0,1,1-11.784,4.881A16.619,16.619,0,0,1,7553.345,2494.85Zm11.2,5.471a15.831,15.831,0,1,0,4.638,11.195A15.785,15.785,0,0,0,7564.541,2500.321Z" transform="translate(-6019.724 -1992.694)"/>
      <path id="Path_2778" data-name="Path 2778" d="M7627.215,2715.47v93.887h-.835V2715.47Z" transform="translate(-6091.369 -2168.909)"/>
      <path id="Path_2779" data-name="Path 2779" d="M7582.681,2864.729l-11.161-11.489.6-.58,11.163,11.489Z" transform="translate(-6047.551 -2278.486)"/>
      <path id="Path_2780" data-name="Path 2780" d="M7626.971,2866.753l10.506-10.833.6.58-10.5,10.833Z" transform="translate(-6091.842 -2281.09)"/>
      <path id="Path_2781" data-name="Path 2781" d="M6964.8,2991.57V3020.5h-.833V2991.57Z" transform="translate(-5562.288 -2389.436)"/>
      <path id="Path_2782" data-name="Path 2782" d="M6868.238,2729.01a25.311,25.311,0,1,1-17.9,7.414A25.232,25.232,0,0,1,6868.238,2729.01Zm17.306,8a24.477,24.477,0,1,0,7.167,17.306A24.4,24.4,0,0,0,6885.544,2737.013Z" transform="translate(-5465.609 -2179.723)"/>
    </g>
  </g>
</svg>
